<svg xmlns="http://www.w3.org/2000/svg" xmlns:xlink="http://www.w3.org/1999/xlink" version="1.1" id="Capa_1" x="0px" y="0px" viewBox="0 0 491.312 491.312" style="enable-background:new 0 0 491.312 491.312;" xml:space="preserve" width="512" height="512" class=""><g><circle style="fill:#2878B2" cx="245.656" cy="245.656" r="112" data-original="#FFCB57" class="" data-old_color="#2878b2"></circle><g>
	<path style="fill:#FFFFFF" d="M245.656,365.656c66.168,0,120-53.832,120-120s-53.832-120-120-120s-120,53.832-120,120   S179.488,365.656,245.656,365.656z M245.656,141.656c57.344,0,104,46.656,104,104s-46.656,104-104,104s-104-46.656-104-104   S188.312,141.656,245.656,141.656z" data-original="#3F3A34" class="" data-old_color="#ffffff"></path>
	<path style="fill:#FFFFFF" d="M221.656,189.656v16h-16v80h16v16h16v-16h16v16h16v-17.472c9.288-3.312,16-12.112,16-22.528   c0-6.144-2.32-11.752-6.128-16c3.808-4.248,6.128-9.856,6.128-16c0-10.416-6.712-19.216-16-22.528v-17.472h-16v16h-16v-16H221.656z    M261.656,269.656h-40v-16h40c4.408,0,8,3.584,8,8S266.064,269.656,261.656,269.656z M261.656,237.656h-40v-16h40   c4.408,0,8,3.584,8,8S266.064,237.656,261.656,237.656z" data-original="#3F3A34" class="" data-old_color="#ffffff"></path>
	<path style="fill:#FFFFFF" d="M189.912,291.2c-10.48-12.8-16.256-28.984-16.256-45.544c0-39.704,32.304-72,72-72   c16.56,0,32.744,5.776,45.552,16.256l10.136-12.376c-15.664-12.816-35.44-19.88-55.688-19.88c-48.52,0-88,39.48-88,88   c0,20.248,7.056,40.024,19.872,55.688L189.912,291.2z" data-original="#3F3A34" class="" data-old_color="#ffffff"></path>
	<path style="fill:#FFFFFF" d="M245.656,317.656c-16.56,0-32.744-5.776-45.552-16.256l-10.136,12.376   c15.664,12.816,35.44,19.88,55.688,19.88c48.52,0,88-39.48,88-88c0-20.248-7.056-40.024-19.872-55.688L301.4,200.112   c10.48,12.8,16.256,28.984,16.256,45.544C317.656,285.36,285.352,317.656,245.656,317.656z" data-original="#3F3A34" class="" data-old_color="#ffffff"></path>
	<path style="fill:#FFFFFF" d="M328.592,371.24l-82.936,41.472L162.72,371.24c-32.728-16.368-53.064-49.264-53.064-85.856V181.656   h-16v103.728c0,42.696,23.72,81.08,61.912,100.168l90.088,45.048l90.088-45.048c17.976-8.984,33.224-22.672,44.096-39.568   l-13.456-8.656C357.064,351.816,343.992,363.536,328.592,371.24z" data-original="#3F3A34" class="" data-old_color="#ffffff"></path>
	<polygon style="fill:#FFFFFF" points="245.656,77.464 139.92,100.952 143.392,116.576 245.656,93.848 381.656,124.072    381.656,277.656 397.656,277.656 397.656,111.24  " data-original="#3F3A34" class="" data-old_color="#ffffff"></polygon>
</g><g>
	<polygon style="fill:#FFFFFF" points="11.312,283.312 0,272 109.656,162.344 109.656,69.656 124.024,69.656 85.656,25.808    47.288,69.656 61.656,69.656 61.656,109.656 45.656,109.656 45.656,85.656 12.024,85.656 85.656,1.504 159.288,85.656    125.656,85.656 125.656,168.968  " data-original="#E56565" class="active-path" data-old_color="#ffffff"></polygon>
	<rect x="45.656" y="125.656" style="fill:#FFFFFF" width="16" height="16" data-original="#E56565" class="active-path" data-old_color="#ffffff"></rect>
	<polygon style="fill:#FFFFFF" points="405.656,489.808 332.024,405.656 365.656,405.656 365.656,322.344 480,208 491.312,219.312    381.656,328.968 381.656,421.656 367.288,421.656 405.656,465.504 444.024,421.656 429.656,421.656 429.656,381.656    445.656,381.656 445.656,405.656 479.288,405.656  " data-original="#E56565" class="active-path" data-old_color="#ffffff"></polygon>
	<rect x="429.656" y="349.656" style="fill:#FFFFFF" width="16" height="16" data-original="#E56565" class="active-path" data-old_color="#ffffff"></rect>
</g></g> </svg>