<svg xmlns="http://www.w3.org/2000/svg" xmlns:xlink="http://www.w3.org/1999/xlink" version="1.1" id="Capa_1" x="0px" y="0px" viewBox="0 0 496 496" style="enable-background:new 0 0 496 496;" xml:space="preserve" width="512" height="512" class=""><g><circle style="fill:#2878B2" cx="248" cy="248" r="112" data-original="#FFCB57" class="" data-old_color="#2878b2"></circle><g>
	<path style="fill:#FFFFFF" d="M340.072,324.832l61.016,49.392l10.064-12.44l-61.712-49.952   c11.04-17.488,17.664-37.976,18.368-59.976l72.512-2.896l-0.64-15.984l-72.296,2.888c-3.584-35.552-22.8-66.496-50.592-86.032   l17.992-28.784l-13.56-8.48l-18.104,28.96C286.592,132.936,267.872,128,248,128c-20.936,0-40.624,5.416-57.776,14.888l-48.128-75.2   l-13.472,8.624l48.192,75.304c-11.608,8.592-21.624,19.168-29.496,31.304l-25.04-13.912l-7.768,13.984l25.064,13.92   C132.232,212.44,128,229.712,128,248c0,31.6,12.368,60.296,32.4,81.744l-22.232,23.712L149.84,364.4l22.152-23.632   C192.704,357.776,219.176,368,248,368c10.936,0,21.488-1.6,31.56-4.352l32.872,94.968l15.128-5.232l-32.832-94.856   C312.416,351.024,327.92,339.368,340.072,324.832z M144,248c0-57.344,46.656-104,104-104s104,46.656,104,104s-46.656,104-104,104   S144,305.344,144,248z" data-original="#3F3A34" class="" data-old_color="#ffffff"></path>
	<path style="fill:#FFFFFF" d="M272,209.472V192h-16v16h-16v-16h-16v16h-16v80h16v16h16v-16h16v16h16v-17.472   c9.288-3.312,16-12.112,16-22.528c0-6.144-2.32-11.752-6.128-16c3.808-4.248,6.128-9.856,6.128-16   C288,221.584,281.288,212.784,272,209.472z M264,272h-40v-16h40c4.416,0,8,3.592,8,8S268.416,272,264,272z M264,240h-40v-16h40   c4.416,0,8,3.592,8,8S268.416,240,264,240z" data-original="#3F3A34" class="" data-old_color="#ffffff"></path>
	<path style="fill:#FFFFFF" d="M248,176c16.56,0,32.744,5.776,45.544,16.256l10.144-12.384C288.024,167.056,268.248,160,248,160   c-48.52,0-88,39.48-88,88c0,20.248,7.064,40.024,19.88,55.688l12.376-10.136C181.776,280.744,176,264.56,176,248   C176,208.304,208.296,176,248,176z" data-original="#3F3A34" class="" data-old_color="#ffffff"></path>
	<path style="fill:#FFFFFF" d="M316.12,192.312l-12.376,10.136C314.224,215.256,320,231.44,320,248c0,39.696-32.296,72-72,72   c-16.56,0-32.744-5.776-45.544-16.256l-10.144,12.384C207.976,328.944,227.752,336,248,336c48.52,0,88-39.48,88-88   C336,227.752,328.936,207.976,316.12,192.312z" data-original="#3F3A34" class="" data-old_color="#ffffff"></path>
	<polygon style="fill:#FFFFFF" points="453.72,217.624 467.264,213.856 436.16,101.856 420.736,106.144 450.768,214.264    349.832,107.016 338.168,117.984 442.168,228.488  " data-original="#3F3A34" class="" data-old_color="#ffffff"></polygon>
	
		<rect x="312.009" y="38.168" transform="matrix(-0.9285 0.3714 -0.3714 -0.9285 640.9047 4.6066)" style="fill:#FFFFFF" width="16" height="51.697" data-original="#3F3A34" class="" data-old_color="#ffffff"></rect>
	
		<rect x="143.398" y="27.486" transform="matrix(-0.9917 0.1289 -0.1289 -0.9917 434.7751 42.8357)" style="fill:#FFFFFF" width="145.206" height="16.001" data-original="#3F3A34" class="" data-old_color="#ffffff"></rect>
	
		<rect x="71.096" y="103.992" transform="matrix(-0.1321 0.9912 -0.9912 -0.1321 237.1877 16.3085)" style="fill:#FFFFFF" width="80.717" height="15.999" data-original="#3F3A34" class="" data-old_color="#ffffff"></rect>
	
		<rect x="65.582" y="319.091" transform="matrix(-0.359 0.9333 -0.9333 -0.359 431.4149 413.8951)" style="fill:#FFFFFF" width="15.999" height="71.997" data-original="#3F3A34" class="" data-old_color="#ffffff"></rect>
	<polygon style="fill:#FFFFFF" points="38.84,323.44 103.608,187.44 89.16,180.56 32,300.576 32,136 16,136 16,320 31.616,320  " data-original="#3F3A34" class="" data-old_color="#ffffff"></polygon>
	
		<rect x="351.546" y="88.005" transform="matrix(-0.9839 0.1787 -0.1787 -0.9839 771.0513 122.5579)" style="fill:#FFFFFF" width="56.92" height="16" data-original="#3F3A34" class="" data-old_color="#ffffff"></rect>
	
		<rect x="26.655" y="80.003" transform="matrix(-0.8001 0.5998 -0.5998 -0.8001 172.7682 118.4296)" style="fill:#FFFFFF" width="79.997" height="15.991" data-original="#3F3A34" class="" data-old_color="#ffffff"></rect>
	
		<rect x="381.6" y="307.303" transform="matrix(-0.3329 0.943 -0.943 -0.3329 880.3975 7.7591)" style="fill:#FFFFFF" width="111.708" height="16.001" data-original="#3F3A34" class="" data-old_color="#ffffff"></rect>
	
		<rect x="318.733" y="416.009" transform="matrix(-0.6757 0.7372 -0.7372 -0.6757 935.9467 436.2667)" style="fill:#FFFFFF" width="106.554" height="16" data-original="#3F3A34" class="" data-old_color="#ffffff"></rect>
	<rect x="232" y="464" style="fill:#FFFFFF" width="88" height="16" data-original="#3F3A34" class="" data-old_color="#ffffff"></rect>
	
		<rect x="168" y="381.026" transform="matrix(-0.7372 0.6757 -0.6757 -0.7372 595.1982 625.2599)" style="fill:#FFFFFF" width="16" height="94.714" data-original="#3F3A34" class="" data-old_color="#ffffff"></rect>
	
		<rect x="58.663" y="111.395" transform="matrix(-0.5146 0.8574 -0.8574 -0.5146 225.8104 163.3721)" style="fill:#FFFFFF" width="16" height="68.414" data-original="#3F3A34" class="" data-old_color="#ffffff"></rect>
</g><g>
	<path style="fill:#FFFFFF" d="M304,48c-13.232,0-24-10.768-24-24s10.768-24,24-24s24,10.768,24,24S317.232,48,304,48z M304,16   c-4.416,0-8,3.592-8,8s3.584,8,8,8s8-3.592,8-8S308.416,16,304,16z" data-original="#E56565" class="active-path" data-old_color="#ffffff"></path>
	<path style="fill:#FFFFFF" d="M104,192c-13.232,0-24-10.768-24-24s10.768-24,24-24s24,10.768,24,24S117.232,192,104,192z M104,160   c-4.416,0-8,3.592-8,8s3.584,8,8,8s8-3.592,8-8S108.416,160,104,160z" data-original="#E56565" class="active-path" data-old_color="#ffffff"></path>
	<path style="fill:#FFFFFF" d="M424,112c-13.232,0-24-10.768-24-24s10.768-24,24-24s24,10.768,24,24S437.232,112,424,112z M424,80   c-4.416,0-8,3.592-8,8s3.584,8,8,8s8-3.592,8-8S428.416,80,424,80z" data-original="#E56565" class="active-path" data-old_color="#ffffff"></path>
	<path style="fill:#FFFFFF" d="M24,360c-13.232,0-24-10.768-24-24s10.768-24,24-24s24,10.768,24,24S37.232,360,24,360z M24,328   c-4.416,0-8,3.592-8,8s3.584,8,8,8s8-3.592,8-8S28.416,328,24,328z" data-original="#E56565" class="active-path" data-old_color="#ffffff"></path>
	<path style="fill:#FFFFFF" d="M328,496c-13.232,0-24-10.768-24-24s10.768-24,24-24s24,10.768,24,24S341.232,496,328,496z M328,464   c-4.416,0-8,3.592-8,8s3.584,8,8,8s8-3.592,8-8S332.416,464,328,464z" data-original="#E56565" class="active-path" data-old_color="#ffffff"></path>
	<path style="fill:#FFFFFF" d="M416,400c-13.232,0-24-10.768-24-24s10.768-24,24-24s24,10.768,24,24S429.232,400,416,400z M416,368   c-4.416,0-8,3.592-8,8s3.584,8,8,8s8-3.592,8-8S420.416,368,416,368z" data-original="#E56565" class="active-path" data-old_color="#ffffff"></path>
	<path style="fill:#FFFFFF" d="M336,128c-13.232,0-24-10.768-24-24s10.768-24,24-24s24,10.768,24,24S349.232,128,336,128z M336,96   c-4.416,0-8,3.592-8,8s3.584,8,8,8s8-3.592,8-8S340.416,96,336,96z" data-original="#E56565" class="active-path" data-old_color="#ffffff"></path>
	<path style="fill:#FFFFFF" d="M120,80c-17.648,0-32-14.352-32-32s14.352-32,32-32s32,14.352,32,32S137.648,80,120,80z M120,32   c-8.824,0-16,7.176-16,16s7.176,16,16,16s16-7.176,16-16S128.824,32,120,32z" data-original="#E56565" class="active-path" data-old_color="#ffffff"></path>
	<path style="fill:#FFFFFF" d="M128,408c-17.648,0-32-14.352-32-32s14.352-32,32-32s32,14.352,32,32S145.648,408,128,408z M128,360   c-8.824,0-16,7.176-16,16s7.176,16,16,16s16-7.176,16-16S136.824,360,128,360z" data-original="#E56565" class="active-path" data-old_color="#ffffff"></path>
	<path style="fill:#FFFFFF" d="M464,272c-17.648,0-32-14.352-32-32s14.352-32,32-32s32,14.352,32,32S481.648,272,464,272z M464,224   c-8.824,0-16,7.176-16,16s7.176,16,16,16s16-7.176,16-16S472.824,224,464,224z" data-original="#E56565" class="active-path" data-old_color="#ffffff"></path>
	<path style="fill:#FFFFFF" d="M216,496c-13.232,0-24-10.768-24-24s10.768-24,24-24s24,10.768,24,24S229.232,496,216,496z M216,464   c-4.416,0-8,3.592-8,8s3.584,8,8,8s8-3.592,8-8S220.416,464,216,464z" data-original="#E56565" class="active-path" data-old_color="#ffffff"></path>
	<path style="fill:#FFFFFF" d="M24,144c-13.232,0-24-10.768-24-24s10.768-24,24-24s24,10.768,24,24S37.232,144,24,144z M24,112   c-4.416,0-8,3.592-8,8c0,4.408,3.584,8,8,8s8-3.592,8-8S28.416,112,24,112z" data-original="#E56565" class="active-path" data-old_color="#ffffff"></path>
</g></g> </svg>