<svg xmlns="http://www.w3.org/2000/svg" xmlns:xlink="http://www.w3.org/1999/xlink" version="1.1" id="Capa_1" x="0px" y="0px" viewBox="0 0 496 496" style="enable-background:new 0 0 496 496;" xml:space="preserve" width="512" height="512" class=""><g><g>
	<path style="fill:#FFFFFF" d="M120,32c0-17.648-14.352-32-32-32S56,14.352,56,32s14.352,32,32,32   c6.848,0,13.168-2.208,18.376-5.88l24.44,20.768l10.36-12.184l-24.488-20.808C118.744,41.672,120,37,120,32z M88,48   c-8.824,0-16-7.176-16-16s7.176-16,16-16s16,7.176,16,16S96.824,48,88,48z" data-original="#E56565" class="" data-old_color="#ffffff"></path>
	<path style="fill:#FFFFFF" d="M408,272c-6.848,0-13.168,2.208-18.376,5.88l-24.44-20.768l-10.36,12.184l24.488,20.808   C377.256,294.328,376,299,376,304c0,17.648,14.352,32,32,32s32-14.352,32-32S425.648,272,408,272z M408,320   c-8.824,0-16-7.176-16-16s7.176-16,16-16s16,7.176,16,16S416.824,320,408,320z" data-original="#E56565" class="" data-old_color="#ffffff"></path>
	<path style="fill:#FFFFFF" d="M130.824,257.112l-24.44,20.768C101.168,274.208,94.848,272,88,272c-17.648,0-32,14.352-32,32   s14.352,32,32,32s32-14.352,32-32c0-5-1.256-9.672-3.304-13.896l24.488-20.808L130.824,257.112z M88,320c-8.824,0-16-7.176-16-16   s7.176-16,16-16s16,7.176,16,16S96.824,320,88,320z" data-original="#E56565" class="" data-old_color="#ffffff"></path>
	<path style="fill:#FFFFFF" d="M365.176,78.888l24.44-20.768C394.832,61.792,401.152,64,408,64c17.648,0,32-14.352,32-32   S425.648,0,408,0s-32,14.352-32,32c0,5,1.256,9.672,3.304,13.896l-24.488,20.808L365.176,78.888z M408,16c8.824,0,16,7.176,16,16   s-7.176,16-16,16s-16-7.176-16-16S399.176,16,408,16z" data-original="#E56565" class="" data-old_color="#ffffff"></path>
</g><polygon style="fill:#2878B2" points="344,168 248,16 152,168 165.712,172.568 152,192 248,320 344,192 330.288,172.568 " data-original="#FFCB57" class="" data-old_color="#2878b2"></polygon><g>
	<path style="fill:#FFFFFF" d="M248,208.432l108.216-36.072L248,1.016L139.784,172.36L248,208.432z M240,188.904l-75.784-25.264   L240,43.648V188.904z M256,188.904V43.648l75.784,119.992L256,188.904z" data-original="#3F3A34" class="active-path" data-old_color="#ffffff"></path>
	<polygon style="fill:#FFFFFF" points="240,224 240,296 158.4,187.2 145.6,196.8 248,333.336 350.4,196.8 337.6,187.2 256,296    256,224  " data-original="#3F3A34" class="active-path" data-old_color="#ffffff"></polygon>
	<path style="fill:#FFFFFF" d="M214.224,316.112l3.544-15.608C155.496,286.36,112,231.864,112,168S155.496,49.64,217.776,35.504   l-3.544-15.608C144.616,35.704,96,96.608,96,168S144.616,300.296,214.224,316.112z" data-original="#3F3A34" class="active-path" data-old_color="#ffffff"></path>
	<path style="fill:#FFFFFF" d="M384,168c0,63.864-43.496,118.36-105.776,132.496l3.544,15.608C351.384,300.296,400,239.392,400,168   S351.384,35.704,281.776,19.888l-3.544,15.608C340.504,49.64,384,104.136,384,168z" data-original="#3F3A34" class="active-path" data-old_color="#ffffff"></path>
	<path style="fill:#FFFFFF" d="M0,408c0,22.056,17.944,40,40,40h120v32h-32v16h240v-16h-32v-32h120c22.056,0,40-17.944,40-40v-24H0   V408z M320,480H176v-32h144V480z M16,400h464v8c0,13.232-10.768,24-24,24H40c-13.232,0-24-10.768-24-24V400z" data-original="#3F3A34" class="active-path" data-old_color="#ffffff"></path>
	<path style="fill:#FFFFFF" d="M456,80h-64v16h64c13.232,0,24,10.768,24,24v248h16V120C496,97.944,478.056,80,456,80z" data-original="#3F3A34" class="active-path" data-old_color="#ffffff"></path>
	<path style="fill:#FFFFFF" d="M16,120c0-13.232,10.768-24,24-24h64V80H40C17.944,80,0,97.944,0,120v248h16V120z" data-original="#3F3A34" class="active-path" data-old_color="#ffffff"></path>
</g></g> </svg>