<svg xmlns="http://www.w3.org/2000/svg" xmlns:xlink="http://www.w3.org/1999/xlink" version="1.1" id="Capa_1" x="0px" y="0px" viewBox="0 0 496 496" style="enable-background:new 0 0 496 496;" xml:space="preserve" width="512" height="512" class=""><g><circle style="fill:#2878B2" cx="248" cy="232" r="112" data-original="#FFCB57" class="" data-old_color="#2878b2"></circle><g>
	<path style="fill:#FFFFFF" d="M416,96c-6.16,0-12.184,0.904-18.088,2.272C387.56,41.952,337.752,0,280,0   c-45.52,0-86.616,26.2-106.816,65.352C161.752,59.32,149.096,56,136,56c-41.584,0-75.824,31.896-79.624,72.496   C24.672,132.28,0,159.296,0,192c0,35.288,28.712,64,64,64h48v-16H64c-26.472,0-48-21.528-48-48c0-23.92,17.6-43.744,40.52-47.36   c0.664,6.16,1.976,12.216,4.048,18.064l15.088-5.344C73.224,150.512,72,143.328,72,136c0-35.288,28.712-64,64-64   c10.928,0,21.464,2.896,30.912,8.136c-1.632,4.608-3.088,9.296-4.144,14.16l15.632,3.408C188.728,50.36,231.464,16,280,16   c50.808,0,94.56,37.432,102.608,87.344c-3.816,1.76-7.528,3.768-11.064,6.136l8.896,13.296C390.976,115.728,403.272,112,416,112   c35.288,0,64,28.712,64,64s-28.712,64-64,64h-32v16h32c44.112,0,80-35.888,80-80S460.112,96,416,96z" data-original="#3F3A34" class="" data-old_color="#ffffff"></path>
	<rect x="240" y="368" style="fill:#FFFFFF" width="16" height="88" data-original="#3F3A34" class="" data-old_color="#ffffff"></rect>
	<polygon style="fill:#FFFFFF" points="297.6,356.8 320,386.664 320,456 336,456 336,381.336 310.4,347.2  " data-original="#3F3A34" class="" data-old_color="#ffffff"></polygon>
	<polygon style="fill:#FFFFFF" points="346.792,318.072 400,363.68 400,456 416,456 416,356.32 357.208,305.928  " data-original="#3F3A34" class="" data-old_color="#ffffff"></polygon>
	<polygon style="fill:#FFFFFF" points="80,356.32 80,456 96,456 96,363.68 149.208,318.072 138.792,305.928  " data-original="#3F3A34" class="" data-old_color="#ffffff"></polygon>
	<polygon style="fill:#FFFFFF" points="160,381.336 160,456 176,456 176,386.664 198.4,356.8 185.6,347.2  " data-original="#3F3A34" class="" data-old_color="#ffffff"></polygon>
	<path style="fill:#FFFFFF" d="M248,352c66.168,0,120-53.832,120-120s-53.832-120-120-120s-120,53.832-120,120S181.832,352,248,352   z M248,128c57.344,0,104,46.656,104,104s-46.656,104-104,104s-104-46.656-104-104S190.656,128,248,128z" data-original="#3F3A34" class="" data-old_color="#ffffff"></path>
	<path style="fill:#FFFFFF" d="M224,176v16h-16v80h16v16h16v-16h16v16h16v-17.472c9.288-3.312,16-12.112,16-22.528   c0-6.144-2.32-11.752-6.128-16c3.808-4.248,6.128-9.856,6.128-16c0-10.416-6.712-19.216-16-22.528V176h-16v16h-16v-16H224z    M264,256h-40v-16h40c4.408,0,8,3.584,8,8C272,252.416,268.408,256,264,256z M264,224h-40v-16h40c4.408,0,8,3.584,8,8   S268.408,224,264,224z" data-original="#3F3A34" class="" data-old_color="#ffffff"></path>
	<path style="fill:#FFFFFF" d="M192.256,277.544C181.776,264.744,176,248.56,176,232c0-39.704,32.304-72,72-72   c16.56,0,32.744,5.776,45.552,16.256l10.136-12.376C288.024,151.064,268.248,144,248,144c-48.52,0-88,39.48-88,88   c0,20.248,7.056,40.024,19.872,55.688L192.256,277.544z" data-original="#3F3A34" class="" data-old_color="#ffffff"></path>
	<path style="fill:#FFFFFF" d="M248,304c-16.56,0-32.744-5.776-45.552-16.256l-10.136,12.376C207.976,312.936,227.752,320,248,320   c48.52,0,88-39.48,88-88c0-20.248-7.056-40.024-19.872-55.688l-12.384,10.144C314.224,199.256,320,215.44,320,232   C320,271.704,287.696,304,248,304z" data-original="#3F3A34" class="" data-old_color="#ffffff"></path>
</g><g>
	<path style="fill:#FFFFFF" d="M248,496c-13.232,0-24-10.768-24-24s10.768-24,24-24s24,10.768,24,24S261.232,496,248,496z M248,464   c-4.408,0-8,3.584-8,8s3.592,8,8,8c4.408,0,8-3.584,8-8S252.408,464,248,464z" data-original="#E56565" class="active-path" data-old_color="#ffffff"></path>
	<path style="fill:#FFFFFF" d="M328,496c-13.232,0-24-10.768-24-24s10.768-24,24-24s24,10.768,24,24S341.232,496,328,496z M328,464   c-4.408,0-8,3.584-8,8s3.592,8,8,8s8-3.584,8-8S332.408,464,328,464z" data-original="#E56565" class="active-path" data-old_color="#ffffff"></path>
	<path style="fill:#FFFFFF" d="M408,496c-13.232,0-24-10.768-24-24s10.768-24,24-24s24,10.768,24,24S421.232,496,408,496z M408,464   c-4.408,0-8,3.584-8,8s3.592,8,8,8s8-3.584,8-8S412.408,464,408,464z" data-original="#E56565" class="active-path" data-old_color="#ffffff"></path>
	<path style="fill:#FFFFFF" d="M88,496c-13.232,0-24-10.768-24-24s10.768-24,24-24s24,10.768,24,24S101.232,496,88,496z M88,464   c-4.408,0-8,3.584-8,8s3.592,8,8,8s8-3.584,8-8S92.408,464,88,464z" data-original="#E56565" class="active-path" data-old_color="#ffffff"></path>
	<path style="fill:#FFFFFF" d="M168,496c-13.232,0-24-10.768-24-24s10.768-24,24-24s24,10.768,24,24S181.232,496,168,496z M168,464   c-4.408,0-8,3.584-8,8s3.592,8,8,8s8-3.584,8-8S172.408,464,168,464z" data-original="#E56565" class="active-path" data-old_color="#ffffff"></path>
</g></g> </svg>