<svg xmlns="http://www.w3.org/2000/svg" xmlns:xlink="http://www.w3.org/1999/xlink" version="1.1" id="Capa_1" x="0px" y="0px" viewBox="0 0 495.996 495.996" style="enable-background:new 0 0 495.996 495.996;" xml:space="preserve" width="512" height="512" class=""><g><circle style="fill:#2878B2" cx="247.998" cy="247.996" r="88" data-original="#FFCB57" class="" data-old_color="#2878b2"></circle><g>
	<path style="fill:#FFFFFF" d="M351.998,119.996h-208c-13.232,0-24,10.768-24,24v16h16v-16c0-4.416,3.584-8,8-8h208   c4.416,0,8,3.584,8,8v16h16v-16C375.998,130.764,365.23,119.996,351.998,119.996z" data-original="#3F3A34" class="" data-old_color="#ffffff"></path>
	<path style="fill:#FFFFFF" d="M135.998,351.996v-168h-16v168c0,13.232,10.768,24,24,24h16v-16h-16   C139.582,359.996,135.998,356.412,135.998,351.996z" data-original="#3F3A34" class="" data-old_color="#ffffff"></path>
	<rect x="183.998" y="359.996" style="fill:#FFFFFF" width="128" height="16" data-original="#3F3A34" class="" data-old_color="#ffffff"></rect>
	<path style="fill:#FFFFFF" d="M359.998,351.996c0,4.416-3.584,8-8,8h-16v16h16c13.232,0,24-10.768,24-24v-168h-16V351.996z" data-original="#3F3A34" class="" data-old_color="#ffffff"></path>
	<path style="fill:#FFFFFF" d="M223.998,191.996v16h-16v80h16v16h16v-16h16v16h16v-17.472c9.288-3.312,16-12.112,16-22.528   c0-6.144-2.32-11.752-6.128-16c3.808-4.248,6.128-9.856,6.128-16c0-10.416-6.712-19.216-16-22.528v-17.472h-16v16h-16v-16H223.998z    M263.998,271.996h-40v-16h40c4.416,0,8,3.584,8,8S268.414,271.996,263.998,271.996z M263.998,239.996h-40v-16h40   c4.416,0,8,3.584,8,8S268.414,239.996,263.998,239.996z" data-original="#3F3A34" class="" data-old_color="#ffffff"></path>
	<path style="fill:#FFFFFF" d="M175.998,247.996c0-39.704,32.296-72,72-72c16.56,0,32.744,5.776,45.544,16.256l10.144-12.376   c-15.664-12.816-35.44-19.88-55.688-19.88c-48.52,0-88,39.48-88,88c0,20.248,7.064,40.024,19.88,55.688l12.376-10.144   C181.774,280.74,175.998,264.556,175.998,247.996z" data-original="#3F3A34" class="" data-old_color="#ffffff"></path>
	<path style="fill:#FFFFFF" d="M247.998,319.996c-16.56,0-32.744-5.776-45.544-16.256l-10.144,12.376   c15.664,12.816,35.44,19.88,55.688,19.88c48.52,0,88-39.48,88-88c0-20.248-7.064-40.024-19.88-55.688l-12.376,10.144   c10.48,12.8,16.256,28.984,16.256,45.544C319.998,287.7,287.702,319.996,247.998,319.996z" data-original="#3F3A34" class="" data-old_color="#ffffff"></path>
</g><g>
	<path style="fill:#FFFFFF" d="M463.422,417.5c-10.688-10.688-27.008-12.248-39.472-4.864l-12.592-12.592   c2.952-4.96,4.64-10.584,4.64-16.52c0-8.672-3.376-16.824-9.504-22.952l-8.832-8.832l-11.312,11.312l8.832,8.832   c4.36,4.36,5.688,10.552,4.128,16.104l-9.648-9.648l-11.312,11.312l9.656,9.656c-5.552,1.56-11.744,0.232-16.104-4.128   l-23.072-23.072c-6.424-6.424-6.424-16.864-0.008-23.28c3.728-3.72,8.192-4.544,11.288-4.584l-0.2-16   c-8.56,0.112-16.512,3.4-22.392,9.264c-12.656,12.656-12.656,33.256,0,45.912l23.072,23.072c6.328,6.328,14.64,9.496,22.96,9.496   c5.736,0,11.424-1.616,16.504-4.624l12.592,12.592c-7.376,12.456-5.824,28.776,4.864,39.472l23.072,23.072   c6.328,6.328,14.64,9.496,22.96,9.496c8.312,0,16.624-3.168,22.952-9.496c12.656-12.656,12.656-33.256,0-45.912L463.422,417.5z    M475.174,475.172c-6.424,6.432-16.864,6.424-23.288,0L428.814,452.1c-4.36-4.36-5.688-10.552-4.128-16.104l9.648,9.648   l11.312-11.312l-9.648-9.648c1.464-0.408,2.952-0.688,4.456-0.688c4.216,0,8.44,1.6,11.648,4.816l23.072,23.072   C481.598,458.308,481.598,468.756,475.174,475.172z" data-original="#E56565" class="active-path" data-old_color="#ffffff"></path>
	<path style="fill:#FFFFFF" d="M32.574,78.492c6.328,6.328,14.64,9.496,22.96,9.496c5.736,0,11.424-1.616,16.504-4.624   L84.63,95.956c-7.376,12.456-5.824,28.776,4.864,39.472l23.072,23.072c6.328,6.328,14.64,9.496,22.952,9.496   c8.32,0,16.632-3.168,22.968-9.504c5.856-5.864,9.152-13.824,9.256-22.384l-16-0.2c-0.04,3.096-0.864,7.56-4.576,11.28   c-6.424,6.432-16.864,6.424-23.288,0l-23.072-23.072c-4.36-4.36-5.688-10.552-4.128-16.104l9.648,9.648l11.312-11.312L107.99,96.7   c5.552-1.56,11.744-0.24,16.104,4.128l8.832,8.832l11.312-11.312l-8.832-8.832c-6.12-6.144-14.264-9.52-22.936-9.52   c-5.928,0-11.56,1.688-16.52,4.64L83.358,72.044c7.376-12.456,5.824-28.776-4.864-39.472L55.422,9.5   C42.766-3.156,22.166-3.156,9.51,9.5s-12.656,33.256,0,45.912L32.574,78.492z M20.822,20.82c3.208-3.208,7.432-4.816,11.64-4.816   c4.216,0,8.44,1.6,11.648,4.816l23.072,23.072c4.36,4.36,5.688,10.552,4.128,16.104l-9.656-9.656L50.342,61.652l9.656,9.656   c-5.552,1.56-11.744,0.232-16.104-4.128L20.822,44.108C14.398,37.684,14.398,27.236,20.822,20.82z" data-original="#E56565" class="active-path" data-old_color="#ffffff"></path>
	<path style="fill:#FFFFFF" d="M360.47,167.98c8.312,0,16.624-3.168,22.952-9.496l23.072-23.072   c10.696-10.696,12.24-27.016,4.864-39.472l12.592-12.592c5.08,3.008,10.776,4.624,16.504,4.624c8.32,0,16.632-3.168,22.96-9.496   l23.072-23.072c12.656-12.656,12.656-33.256,0-45.912s-33.256-12.656-45.912,0l-23.072,23.072   c-10.696,10.696-12.24,27.016-4.864,39.472l-12.592,12.592c-4.96-2.952-10.592-4.64-16.52-4.64c-8.672,0-16.824,3.376-22.952,9.504   l-8.832,8.832l11.312,11.312l8.832-8.832c4.36-4.36,10.56-5.688,16.104-4.128l-9.648,9.648l11.312,11.312l9.648-9.648   c1.56,5.552,0.232,11.744-4.128,16.104l-23.072,23.072c-6.416,6.424-16.864,6.424-23.28,0.008   c-3.72-3.728-4.544-8.192-4.584-11.288l-16,0.2c0.112,8.56,3.4,16.512,9.264,22.392C343.83,164.82,352.15,167.98,360.47,167.98z    M428.822,43.884l23.072-23.072c3.208-3.208,7.432-4.816,11.648-4.816c4.208,0,8.432,1.6,11.64,4.816   c6.424,6.424,6.424,16.864,0,23.288L452.11,67.172c-4.352,4.36-10.544,5.688-16.104,4.128l9.648-9.648L434.342,50.34l-9.648,9.648   C423.134,54.444,424.462,48.244,428.822,43.884z" data-original="#E56565" class="active-path" data-old_color="#ffffff"></path>
	<path style="fill:#FFFFFF" d="M136.102,328.236l-0.2,16c3.096,0.04,7.56,0.864,11.28,4.576c6.424,6.424,6.424,16.864,0,23.288   l-23.072,23.072c-4.352,4.36-10.544,5.688-16.104,4.128l9.648-9.648l-11.312-11.312l-9.648,9.648   c-1.56-5.552-0.232-11.744,4.128-16.104l8.832-8.832L98.342,351.74l-8.832,8.832c-6.136,6.136-9.512,14.28-9.512,22.952   c0,5.928,1.688,11.56,4.64,16.52l-12.592,12.592c-12.456-7.384-28.784-5.824-39.472,4.864L9.502,440.572   c-12.656,12.656-12.656,33.256,0,45.912c6.328,6.328,14.64,9.496,22.952,9.496c8.32,0,16.632-3.168,22.96-9.496l23.072-23.072   c10.696-10.696,12.24-27.016,4.864-39.472l12.592-12.592c5.08,3.008,10.776,4.624,16.504,4.624c8.32,0,16.632-3.168,22.96-9.496   l23.072-23.072c12.656-12.656,12.656-33.256-0.008-45.92C152.614,331.636,144.662,328.348,136.102,328.236z M67.174,452.108   L44.102,475.18c-6.416,6.424-16.856,6.432-23.288,0c-6.424-6.424-6.424-16.864,0-23.288l23.072-23.072   c3.208-3.208,7.432-4.816,11.648-4.816c1.504,0,2.992,0.28,4.456,0.688l-9.648,9.648l11.312,11.312l9.648-9.648   C72.862,441.548,71.534,447.748,67.174,452.108z" data-original="#E56565" class="active-path" data-old_color="#ffffff"></path>
</g></g> </svg>