<?xml version="1.0" encoding="UTF-8" standalone="no"?>
<svg
   xmlns:dc="http://purl.org/dc/elements/1.1/"
   xmlns:cc="http://creativecommons.org/ns#"
   xmlns:rdf="http://www.w3.org/1999/02/22-rdf-syntax-ns#"
   xmlns:svg="http://www.w3.org/2000/svg"
   xmlns="http://www.w3.org/2000/svg"
   viewBox="0 0 795.04315 122.41375"
   height="122.41375"
   width="795.04315"
   xml:space="preserve"
   version="1.1"
   id="svg3339"><metadata
     id="metadata3345"><rdf:RDF><cc:Work
         rdf:about=""><dc:format>image/svg+xml</dc:format><dc:type
           rdf:resource="http://purl.org/dc/dcmitype/StillImage" /><dc:title></dc:title></cc:Work></rdf:RDF></metadata><defs
     id="defs3343"><clipPath
       id="clipPath3353"
       clipPathUnits="userSpaceOnUse"><path
         id="path3355"
         d="M 0,480 640,480 640,0 0,0 0,480 Z" /></clipPath></defs><g
     transform="matrix(1.25,0,0,-1.25,-0.609625,416.12775)"
     id="g3347"><g
       id="g3349"><g
         clip-path="url(#clipPath3353)"
         id="g3351"><g
           transform="translate(43.2427,260.4468)"
           id="g3357"><path
             id="path3359"
             style="fill:none;stroke:#3399e2;stroke-width:1;stroke-linecap:butt;stroke-linejoin:miter;stroke-miterlimit:10;stroke-dasharray:none;stroke-opacity:1"
             d="m 0,0 c -4.59,0 -7.651,1.553 -9.18,4.658 -1.531,3.105 -2.295,9.382 -2.295,18.832 0,9.45 0.764,15.728 2.295,18.833 1.529,3.105 4.59,4.657 9.18,4.657 6.389,0 15.883,-0.091 28.485,-0.27 l 2.16,21.33 C 21.823,70.47 11.61,71.685 0,71.685 c -15.481,0 -26.393,-3.601 -32.738,-10.8 -6.345,-7.201 -9.517,-19.666 -9.517,-37.395 0,-17.731 3.172,-30.196 9.517,-37.395 6.345,-7.201 17.257,-10.8 32.738,-10.8 13.139,0 24.03,1.485 32.67,4.455 L 30.51,1.08 C 23.579,0.358 13.409,0 0,0 Z" /></g><g
           transform="translate(167.3066,265.9819)"
           id="g3361"><path
             id="path3363"
             style="fill:none;stroke:#3399e2;stroke-width:1;stroke-linecap:butt;stroke-linejoin:miter;stroke-miterlimit:10;stroke-dasharray:none;stroke-opacity:1"
             d="m 0,0 c -1.71,8.64 -6.796,13.5 -15.255,14.58 l 0,0.81 c 12.599,1.259 18.9,8.64 18.9,22.14 0,10.618 -3.038,17.999 -9.112,22.14 -6.075,4.139 -16.133,6.21 -30.173,6.21 -17.191,0 -30.375,-0.451 -39.555,-1.35 l 0,-93.15 28.755,0 0,34.02 9.045,0 c 2.519,0 4.341,-0.428 5.468,-1.283 1.124,-0.856 1.957,-2.544 2.497,-5.062 l 6.075,-27.675 30.645,0 L 0,0 Z m -46.44,45.225 10.125,0 c 4.23,0 7.041,-0.631 8.438,-1.89 1.394,-1.262 2.092,-3.827 2.092,-7.695 0,-3.871 -0.698,-6.436 -2.092,-7.695 -1.397,-1.261 -4.208,-1.89 -8.438,-1.89 l -10.125,0 0,19.17 z" /></g><g
           transform="translate(204.5,328.2842)"
           id="g3365"><path
             id="path3367"
             style="fill:none;stroke:#3399e2;stroke-width:1;stroke-linecap:butt;stroke-linejoin:miter;stroke-miterlimit:10;stroke-dasharray:none;stroke-opacity:1"
             d="m 0,0 c -6.075,-2.746 -10.553,-7.606 -13.432,-14.58 -2.881,-6.976 -4.32,-16.898 -4.32,-29.767 0,-12.872 1.439,-22.794 4.32,-29.768 2.879,-6.975 7.357,-11.836 13.432,-14.58 6.075,-2.744 14.602,-4.118 25.583,-4.118 11.07,0 19.642,1.374 25.717,4.118 6.075,2.744 10.552,7.605 13.433,14.58 2.879,6.974 4.32,16.896 4.32,29.768 0,12.869 -1.441,22.791 -4.32,29.767 C 61.852,-7.606 57.375,-2.746 51.3,0 45.225,2.745 36.653,4.118 25.583,4.118 14.602,4.118 6.075,2.745 0,0 Z m 38.138,-44.347 c 0,-10.712 -0.833,-17.843 -2.498,-21.398 -1.666,-3.556 -5.018,-5.332 -10.057,-5.332 -5.041,0 -8.394,1.776 -10.058,5.332 -1.666,3.555 -2.497,10.686 -2.497,21.398 0,10.709 0.831,17.841 2.497,21.397 1.664,3.554 5.017,5.333 10.058,5.333 5.039,0 8.391,-1.779 10.057,-5.333 1.665,-3.556 2.498,-10.688 2.498,-21.397 z" /></g><g
           transform="translate(350.5005,330.5117)"
           id="g3369"><path
             id="path3371"
             style="fill:none;stroke:#3399e2;stroke-width:1;stroke-linecap:butt;stroke-linejoin:miter;stroke-miterlimit:10;stroke-dasharray:none;stroke-opacity:1"
             d="m 0,0 0,-38.07 c 0.089,-4.59 0.54,-10.216 1.35,-16.875 l -0.945,0 c -2.342,6.299 -4.725,11.61 -7.155,15.93 l -19.44,30.51 c -1.89,3.15 -3.556,5.354 -4.995,6.615 -1.44,1.26 -3.556,1.89 -6.345,1.89 l -11.205,0 c -6.75,0 -10.125,-3.375 -10.125,-10.125 l 0,-83.025 27,0 0,39.42 c 0,5.04 -0.452,10.709 -1.35,17.01 l 0.945,0 c 1.89,-6.571 3.959,-11.88 6.21,-15.93 l 20.25,-31.995 c 1.8,-3.151 3.443,-5.355 4.928,-6.615 1.484,-1.261 3.622,-1.89 6.412,-1.89 l 11.205,0 c 6.75,0 10.125,3.375 10.125,10.125 L 26.865,0 0,0 Z" /></g><path
           id="path3373"
           style="fill:none;stroke:#3399e2;stroke-width:1;stroke-linecap:butt;stroke-linejoin:miter;stroke-miterlimit:10;stroke-dasharray:none;stroke-opacity:1"
           d="m 427.18,330.512 -29.025,0 0,-93.15 29.025,0 0,93.15 z" /><g
           transform="translate(463.1567,328.2842)"
           id="g3375"><path
             id="path3377"
             style="fill:none;stroke:#3399e2;stroke-width:1;stroke-linecap:butt;stroke-linejoin:miter;stroke-miterlimit:10;stroke-dasharray:none;stroke-opacity:1"
             d="m 0,0 c -6.075,-2.746 -10.553,-7.606 -13.432,-14.58 -2.881,-6.976 -4.32,-16.898 -4.32,-29.767 0,-12.872 1.439,-22.794 4.32,-29.768 2.879,-6.975 7.357,-11.836 13.432,-14.58 6.075,-2.744 14.601,-4.118 25.583,-4.118 11.07,0 19.642,1.374 25.717,4.118 6.075,2.744 10.551,7.605 13.433,14.58 2.879,6.974 4.319,16.896 4.319,29.768 0,12.869 -1.44,22.791 -4.319,29.767 C 61.851,-7.606 57.375,-2.746 51.3,0 45.225,2.745 36.653,4.118 25.583,4.118 14.601,4.118 6.075,2.745 0,0 Z m 38.138,-44.347 c 0,-10.712 -0.834,-17.843 -2.498,-21.398 -1.666,-3.556 -5.018,-5.332 -10.057,-5.332 -5.041,0 -8.393,1.776 -10.058,5.332 -1.666,3.555 -2.497,10.686 -2.497,21.398 0,10.709 0.831,17.841 2.497,21.397 1.665,3.554 5.017,5.333 10.058,5.333 5.039,0 8.391,-1.779 10.057,-5.333 1.664,-3.556 2.498,-10.688 2.498,-21.397 z" /></g><g
           transform="translate(609.1572,330.5117)"
           id="g3379"><path
             id="path3381"
             style="fill:none;stroke:#3399e2;stroke-width:1;stroke-linecap:butt;stroke-linejoin:miter;stroke-miterlimit:10;stroke-dasharray:none;stroke-opacity:1"
             d="m 0,0 0,-38.07 c 0.089,-4.59 0.54,-10.216 1.351,-16.875 l -0.946,0 c -2.342,6.299 -4.725,11.61 -7.155,15.93 l -19.439,30.51 c -1.891,3.15 -3.557,5.354 -4.996,6.615 C -32.626,-0.63 -34.741,0 -37.53,0 l -11.205,0 c -6.75,0 -10.125,-3.375 -10.125,-10.125 l 0,-83.025 27,0 0,39.42 c 0,5.04 -0.452,10.709 -1.35,17.01 l 0.945,0 c 1.89,-6.571 3.959,-11.88 6.21,-15.93 l 20.25,-31.995 c 1.799,-3.151 3.443,-5.355 4.928,-6.615 1.484,-1.261 3.621,-1.89 6.412,-1.89 l 11.205,0 c 6.75,0 10.125,3.375 10.125,10.125 L 26.865,0 0,0 Z" /></g></g></g></g></svg>