<svg xmlns="http://www.w3.org/2000/svg" xmlns:xlink="http://www.w3.org/1999/xlink" version="1.1" id="Capa_1" x="0px" y="0px" viewBox="0 0 496 496" style="enable-background:new 0 0 496 496;" xml:space="preserve" width="512" height="512" class=""><g><circle style="fill:#2878B2" cx="248" cy="120" r="112" data-original="#FFCB57" class="" data-old_color="#2878b2"></circle><g>
	<rect x="56" y="256" style="fill:#FFFFFF" width="16" height="16" data-original="#E56565" class="" data-old_color="#ffffff"></rect>
	<rect x="40" y="272" style="fill:#FFFFFF" width="16" height="16" data-original="#E56565" class="" data-old_color="#ffffff"></rect>
	<rect x="56" y="288" style="fill:#FFFFFF" width="16" height="16" data-original="#E56565" class="" data-old_color="#ffffff"></rect>
	<rect x="72" y="272" style="fill:#FFFFFF" width="16" height="16" data-original="#E56565" class="" data-old_color="#ffffff"></rect>
	<rect x="424" y="272" style="fill:#FFFFFF" width="16" height="16" data-original="#E56565" class="" data-old_color="#ffffff"></rect>
	<rect x="408" y="288" style="fill:#FFFFFF" width="16" height="16" data-original="#E56565" class="" data-old_color="#ffffff"></rect>
	<rect x="424" y="304" style="fill:#FFFFFF" width="16" height="16" data-original="#E56565" class="" data-old_color="#ffffff"></rect>
	<rect x="440" y="288" style="fill:#FFFFFF" width="16" height="16" data-original="#E56565" class="" data-old_color="#ffffff"></rect>
</g><g>
	<path style="fill:#FFFFFF" d="M248,240c66.168,0,120-53.832,120-120S314.168,0,248,0S128,53.832,128,120S181.832,240,248,240z    M248,16c57.344,0,104,46.656,104,104s-46.656,104-104,104s-104-46.656-104-104S190.656,16,248,16z" data-original="#3F3A34" class="active-path" data-old_color="#ffffff"></path>
	<path style="fill:#FFFFFF" d="M224,64v16h-16v80h16v16h16v-16h16v16h16v-17.472c9.288-3.312,16-12.112,16-22.528   c0-6.144-2.32-11.752-6.128-16c3.808-4.248,6.128-9.856,6.128-16c0-10.416-6.712-19.216-16-22.528V64h-16v16h-16V64H224z M264,144   h-40v-16h40c4.416,0,8,3.592,8,8S268.416,144,264,144z M264,112h-40V96h40c4.416,0,8,3.592,8,8S268.416,112,264,112z" data-original="#3F3A34" class="active-path" data-old_color="#ffffff"></path>
	<path style="fill:#FFFFFF" d="M192.256,165.552C181.776,152.744,176,136.56,176,120c0-39.696,32.296-72,72-72   c16.56,0,32.744,5.776,45.544,16.256l10.144-12.384C288.024,39.056,268.248,32,248,32c-48.52,0-88,39.48-88,88   c0,20.248,7.064,40.024,19.88,55.688L192.256,165.552z" data-original="#3F3A34" class="active-path" data-old_color="#ffffff"></path>
	<path style="fill:#FFFFFF" d="M248,192c-16.56,0-32.744-5.776-45.544-16.256l-10.144,12.384C207.976,200.944,227.752,208,248,208   c48.52,0,88-39.48,88-88c0-20.248-7.064-40.024-19.88-55.688l-12.376,10.136C314.224,87.256,320,103.44,320,120   C320,159.696,287.704,192,248,192z" data-original="#3F3A34" class="active-path" data-old_color="#ffffff"></path>
	<path style="fill:#FFFFFF" d="M312,224v128c0,35.288-28.712,64-64,64s-64-28.712-64-64V224h-80v128c0,79.4,64.6,144,144,144   s144-64.6,144-144V224H312z M376,240v16h-48v-16H376z M168,240v16h-48v-16H168z M248,480c-70.576,0-128-57.424-128-128v-80h48v80   c0,44.112,35.888,80,80,80s80-35.888,80-80v-80h48v80C376,422.576,318.576,480,248,480z" data-original="#3F3A34" class="active-path" data-old_color="#ffffff"></path>
</g><g>
	<path style="fill:#FFFFFF" d="M424,224h-16c0-16.112,4.816-24.52,9.056-31.944c3.728-6.512,6.944-12.144,6.944-24   c0-11.872-3.216-17.504-6.944-24.024c-4.24-7.432-9.056-15.848-9.056-31.968c0-16.136,4.816-24.552,9.056-31.984   C420.784,73.552,424,67.912,424,56.032s-3.216-17.52-6.944-24.048C412.816,24.552,408,16.136,408,0h16   c0,11.88,3.216,17.52,6.944,24.048C435.184,31.48,440,39.896,440,56.032s-4.816,24.552-9.056,31.984   c-3.728,6.528-6.944,12.16-6.944,24.048c0,11.872,3.216,17.504,6.944,24.024c4.24,7.424,9.056,15.84,9.056,31.968   c0,16.112-4.816,24.52-9.056,31.944C427.216,206.512,424,212.144,424,224z" data-original="#E56565" class="" data-old_color="#ffffff"></path>
	<path style="fill:#FFFFFF" d="M480,224h-16c0-16.112,4.816-24.52,9.056-31.944c3.728-6.512,6.944-12.144,6.944-24   c0-11.872-3.216-17.504-6.944-24.024c-4.24-7.432-9.056-15.848-9.056-31.968c0-16.136,4.816-24.552,9.056-31.984   C476.784,73.552,480,67.912,480,56.032s-3.216-17.52-6.944-24.048C468.816,24.552,464,16.136,464,0h16   c0,11.88,3.216,17.52,6.944,24.048C491.184,31.48,496,39.896,496,56.032s-4.816,24.552-9.056,31.984   c-3.728,6.528-6.944,12.16-6.944,24.048c0,11.872,3.216,17.504,6.944,24.024c4.24,7.424,9.056,15.84,9.056,31.968   c0,16.112-4.816,24.52-9.056,31.944C483.216,206.512,480,212.144,480,224z" data-original="#E56565" class="" data-old_color="#ffffff"></path>
	<path style="fill:#FFFFFF" d="M88,224H72c0-11.88-3.216-17.52-6.944-24.048C60.816,192.52,56,184.104,56,167.968   s4.816-24.552,9.056-31.984c3.728-6.528,6.944-12.16,6.944-24.048c0-11.872-3.216-17.504-6.944-24.024   C60.816,80.488,56,72.064,56,55.944c0-16.112,4.816-24.52,9.056-31.944C68.784,17.488,72,11.856,72,0h16   c0,16.112-4.816,24.52-9.056,31.944c-3.728,6.52-6.944,12.144-6.944,24c0,11.872,3.216,17.504,6.944,24.024   C83.184,87.392,88,95.808,88,111.936c0,16.136-4.816,24.552-9.056,31.984C75.216,150.448,72,156.088,72,167.968   s3.216,17.52,6.944,24.048C83.184,199.448,88,207.864,88,224z" data-original="#E56565" class="" data-old_color="#ffffff"></path>
	<path style="fill:#FFFFFF" d="M32,224H16c0-11.88-3.216-17.52-6.944-24.048C4.816,192.52,0,184.104,0,167.968   s4.816-24.552,9.056-31.984c3.728-6.528,6.944-12.16,6.944-24.048c0-11.872-3.216-17.504-6.944-24.024   C4.816,80.488,0,72.064,0,55.944C0,39.832,4.816,31.424,9.056,24C12.784,17.488,16,11.856,16,0h16   c0,16.112-4.816,24.52-9.056,31.944c-3.728,6.52-6.944,12.144-6.944,24c0,11.872,3.216,17.504,6.944,24.024   C27.184,87.4,32,95.816,32,111.936c0,16.136-4.816,24.552-9.056,31.984C19.216,150.448,16,156.088,16,167.968   s3.216,17.52,6.944,24.048C27.184,199.448,32,207.864,32,224z" data-original="#E56565" class="" data-old_color="#ffffff"></path>
</g></g> </svg>