<svg xmlns="http://www.w3.org/2000/svg" xmlns:xlink="http://www.w3.org/1999/xlink" version="1.1" id="Capa_1" x="0px" y="0px" viewBox="0 0 496 496" style="enable-background:new 0 0 496 496;" xml:space="preserve" width="512" height="512" class=""><g><circle style="fill:#2878B2" cx="248" cy="248" r="88" data-original="#FFCB57" class="" data-old_color="#2878b2"></circle><g>
	<path style="fill:#FFFFFF" d="M0,128v240h496V128H0z M480,352H16V144h464V352z" data-original="#3F3A34" class="" data-old_color="#ffffff"></path>
	<rect x="240" y="40" style="fill:#FFFFFF" width="16" height="72" data-original="#3F3A34" class="" data-old_color="#ffffff"></rect>
	<polygon style="fill:#FFFFFF" points="192,112 208,112 208,91.056 176,75.056 176,40 160,40 160,84.944 192,100.944  " data-original="#3F3A34" class="" data-old_color="#ffffff"></polygon>
	<polygon style="fill:#FFFFFF" points="112,112 128,112 128,91.056 96,75.056 96,40 80,40 80,84.944 112,100.944  " data-original="#3F3A34" class="" data-old_color="#ffffff"></polygon>
	<polygon style="fill:#FFFFFF" points="304,100.944 336,84.944 336,40 320,40 320,75.056 288,91.056 288,112 304,112  " data-original="#3F3A34" class="" data-old_color="#ffffff"></polygon>
	<polygon style="fill:#FFFFFF" points="384,100.944 416,84.944 416,40 400,40 400,75.056 368,91.056 368,112 384,112  " data-original="#3F3A34" class="" data-old_color="#ffffff"></polygon>
	<rect x="240" y="384" style="fill:#FFFFFF" width="16" height="72" data-original="#3F3A34" class="" data-old_color="#ffffff"></rect>
	<polygon style="fill:#FFFFFF" points="304,384 288,384 288,404.944 320,420.944 320,456 336,456 336,411.056 304,395.056  " data-original="#3F3A34" class="" data-old_color="#ffffff"></polygon>
	<polygon style="fill:#FFFFFF" points="384,384 368,384 368,404.944 400,420.944 400,456 416,456 416,411.056 384,395.056  " data-original="#3F3A34" class="" data-old_color="#ffffff"></polygon>
	<polygon style="fill:#FFFFFF" points="192,395.056 160,411.056 160,456 176,456 176,420.944 208,404.944 208,384 192,384  " data-original="#3F3A34" class="" data-old_color="#ffffff"></polygon>
	<polygon style="fill:#FFFFFF" points="112,395.056 80,411.056 80,456 96,456 96,420.944 128,404.944 128,384 112,384  " data-original="#3F3A34" class="" data-old_color="#ffffff"></polygon>
	<polygon style="fill:#FFFFFF" points="448,200 464,200 464,160 424,160 424,176 448,176  " data-original="#3F3A34" class="" data-old_color="#ffffff"></polygon>
	<polygon style="fill:#FFFFFF" points="464,296 448,296 448,320 424,320 424,336 464,336  " data-original="#3F3A34" class="" data-old_color="#ffffff"></polygon>
	<polygon style="fill:#FFFFFF" points="48,176 72,176 72,160 32,160 32,200 48,200  " data-original="#3F3A34" class="" data-old_color="#ffffff"></polygon>
	<polygon style="fill:#FFFFFF" points="72,320 48,320 48,296 32,296 32,336 72,336  " data-original="#3F3A34" class="" data-old_color="#ffffff"></polygon>
	<path style="fill:#FFFFFF" d="M224,192v16h-16v80h16v16h16v-16h16v16h16v-17.472c9.288-3.312,16-12.112,16-22.528   c0-6.144-2.32-11.752-6.128-16c3.808-4.248,6.128-9.856,6.128-16c0-10.416-6.712-19.216-16-22.528V192h-16v16h-16v-16H224z    M264,272h-40v-16h40c4.408,0,8,3.584,8,8S268.408,272,264,272z M264,240h-40v-16h40c4.408,0,8,3.584,8,8S268.408,240,264,240z" data-original="#3F3A34" class="" data-old_color="#ffffff"></path>
	<path style="fill:#FFFFFF" d="M192.256,293.544C181.776,280.744,176,264.56,176,248c0-39.704,32.304-72,72-72   c16.56,0,32.744,5.776,45.552,16.256l10.136-12.376C288.024,167.064,268.248,160,248,160c-48.52,0-88,39.48-88,88   c0,20.248,7.056,40.024,19.872,55.688L192.256,293.544z" data-original="#3F3A34" class="" data-old_color="#ffffff"></path>
	<path style="fill:#FFFFFF" d="M248,320c-16.56,0-32.744-5.776-45.552-16.256l-10.136,12.376C207.976,328.936,227.752,336,248,336   c48.52,0,88-39.48,88-88c0-20.248-7.056-40.024-19.872-55.688l-12.384,10.144C314.224,215.256,320,231.44,320,248   C320,287.704,287.696,320,248,320z" data-original="#3F3A34" class="" data-old_color="#ffffff"></path>
</g><g>
	<path style="fill:#FFFFFF" d="M248,48c-13.232,0-24-10.768-24-24s10.768-24,24-24s24,10.768,24,24S261.232,48,248,48z M248,16   c-4.408,0-8,3.584-8,8s3.592,8,8,8c4.408,0,8-3.584,8-8S252.408,16,248,16z" data-original="#E56565" class="active-path" data-old_color="#ffffff"></path>
	<path style="fill:#FFFFFF" d="M168,48c-13.232,0-24-10.768-24-24s10.768-24,24-24s24,10.768,24,24S181.232,48,168,48z M168,16   c-4.408,0-8,3.584-8,8s3.592,8,8,8s8-3.584,8-8S172.408,16,168,16z" data-original="#E56565" class="active-path" data-old_color="#ffffff"></path>
	<path style="fill:#FFFFFF" d="M88,48c-13.232,0-24-10.768-24-24S74.768,0,88,0s24,10.768,24,24S101.232,48,88,48z M88,16   c-4.408,0-8,3.584-8,8s3.592,8,8,8s8-3.584,8-8S92.408,16,88,16z" data-original="#E56565" class="active-path" data-old_color="#ffffff"></path>
	<path style="fill:#FFFFFF" d="M328,48c-13.232,0-24-10.768-24-24s10.768-24,24-24s24,10.768,24,24S341.232,48,328,48z M328,16   c-4.408,0-8,3.584-8,8s3.592,8,8,8s8-3.584,8-8S332.408,16,328,16z" data-original="#E56565" class="active-path" data-old_color="#ffffff"></path>
	<path style="fill:#FFFFFF" d="M408,48c-13.232,0-24-10.768-24-24s10.768-24,24-24s24,10.768,24,24S421.232,48,408,48z M408,16   c-4.408,0-8,3.584-8,8s3.592,8,8,8s8-3.584,8-8S412.408,16,408,16z" data-original="#E56565" class="active-path" data-old_color="#ffffff"></path>
	<path style="fill:#FFFFFF" d="M248,496c-13.232,0-24-10.768-24-24s10.768-24,24-24s24,10.768,24,24S261.232,496,248,496z M248,464   c-4.408,0-8,3.584-8,8s3.592,8,8,8c4.408,0,8-3.584,8-8S252.408,464,248,464z" data-original="#E56565" class="active-path" data-old_color="#ffffff"></path>
	<path style="fill:#FFFFFF" d="M328,496c-13.232,0-24-10.768-24-24s10.768-24,24-24s24,10.768,24,24S341.232,496,328,496z M328,464   c-4.408,0-8,3.584-8,8s3.592,8,8,8s8-3.584,8-8S332.408,464,328,464z" data-original="#E56565" class="active-path" data-old_color="#ffffff"></path>
	<path style="fill:#FFFFFF" d="M408,496c-13.232,0-24-10.768-24-24s10.768-24,24-24s24,10.768,24,24S421.232,496,408,496z M408,464   c-4.408,0-8,3.584-8,8s3.592,8,8,8s8-3.584,8-8S412.408,464,408,464z" data-original="#E56565" class="active-path" data-old_color="#ffffff"></path>
	<path style="fill:#FFFFFF" d="M168,496c-13.232,0-24-10.768-24-24s10.768-24,24-24s24,10.768,24,24S181.232,496,168,496z M168,464   c-4.408,0-8,3.584-8,8s3.592,8,8,8s8-3.584,8-8S172.408,464,168,464z" data-original="#E56565" class="active-path" data-old_color="#ffffff"></path>
	<path style="fill:#FFFFFF" d="M88,496c-13.232,0-24-10.768-24-24s10.768-24,24-24s24,10.768,24,24S101.232,496,88,496z M88,464   c-4.408,0-8,3.584-8,8s3.592,8,8,8s8-3.584,8-8S92.408,464,88,464z" data-original="#E56565" class="active-path" data-old_color="#ffffff"></path>
	<rect x="352" y="240" style="fill:#FFFFFF" width="16" height="16" data-original="#E56565" class="active-path" data-old_color="#ffffff"></rect>
	<rect x="384" y="240" style="fill:#FFFFFF" width="16" height="16" data-original="#E56565" class="active-path" data-old_color="#ffffff"></rect>
	<rect x="416" y="240" style="fill:#FFFFFF" width="16" height="16" data-original="#E56565" class="active-path" data-old_color="#ffffff"></rect>
	<rect x="64" y="240" style="fill:#FFFFFF" width="16" height="16" data-original="#E56565" class="active-path" data-old_color="#ffffff"></rect>
	<rect x="96" y="240" style="fill:#FFFFFF" width="16" height="16" data-original="#E56565" class="active-path" data-old_color="#ffffff"></rect>
	<rect x="128" y="240" style="fill:#FFFFFF" width="16" height="16" data-original="#E56565" class="active-path" data-old_color="#ffffff"></rect>
</g></g> </svg>