<svg xmlns="http://www.w3.org/2000/svg" xmlns:xlink="http://www.w3.org/1999/xlink" version="1.1" id="Capa_1" x="0px" y="0px" viewBox="0 0 496 496" style="enable-background:new 0 0 496 496;" xml:space="preserve" width="512" height="512" class=""><g><g>
	<circle style="fill:#2878B2" cx="384" cy="168" r="88" data-original="#FFCB57" class="" data-old_color="#2878b2"></circle>
	<circle style="fill:#2878B2" cx="112" cy="296" r="88" data-original="#FFCB57" class="" data-old_color="#2878b2"></circle>
</g><g>
	<path style="fill:#FFFFFF" d="M272,328c0,22.056,17.944,40,40,40h144c22.056,0,40-17.944,40-40v-40H272V328z M288,304h192v24   c0,13.232-10.768,24-24,24H312c-13.232,0-24-10.768-24-24V304z" data-original="#3F3A34" class="" data-old_color="#ffffff"></path>
	<path style="fill:#FFFFFF" d="M456,0H312c-22.056,0-40,17.944-40,40v232h16V64h192v208h16V40C496,17.944,478.056,0,456,0z M288,48   v-8c0-13.232,10.768-24,24-24h144c13.232,0,24,10.768,24,24v8H288z" data-original="#3F3A34" class="" data-old_color="#ffffff"></path>
	<rect x="360" y="320" style="fill:#FFFFFF" width="48" height="16" data-original="#3F3A34" class="" data-old_color="#ffffff"></rect>
	<path style="fill:#FFFFFF" d="M392,224h-16c-13.232,0-24-10.768-24-24h-16c0,22.056,17.944,40,40,40v16h16v-16   c22.056,0,40-17.944,40-40s-17.944-40-40-40h-16c-13.232,0-24-10.768-24-24s10.768-24,24-24h16c13.232,0,24,10.768,24,24h16   c0-22.056-17.944-40-40-40V80h-16v16c-22.056,0-40,17.944-40,40s17.944,40,40,40h16c13.232,0,24,10.768,24,24S405.232,224,392,224z   " data-original="#3F3A34" class="" data-old_color="#ffffff"></path>
	<path style="fill:#FFFFFF" d="M0,456c0,22.056,17.944,40,40,40h144c22.056,0,40-17.944,40-40v-40H0V456z M16,432h192v24   c0,13.232-10.768,24-24,24H40c-13.232,0-24-10.768-24-24V432z" data-original="#3F3A34" class="" data-old_color="#ffffff"></path>
	<path style="fill:#FFFFFF" d="M184,128H40c-22.056,0-40,17.944-40,40v232h16V192h192v208h16V168C224,145.944,206.056,128,184,128z    M16,176v-8c0-13.232,10.768-24,24-24h144c13.232,0,24,10.768,24,24v8H16z" data-original="#3F3A34" class="" data-old_color="#ffffff"></path>
	<rect x="88" y="448" style="fill:#FFFFFF" width="48" height="16" data-original="#3F3A34" class="" data-old_color="#ffffff"></rect>
	<path style="fill:#FFFFFF" d="M88,208v16H72v144h16v16h16v-16h16v16h16v-16.808c18.232-3.72,32-19.872,32-39.192   c0-13.072-6.304-24.696-16.024-32c9.72-7.304,16.024-18.928,16.024-32c0-19.312-13.768-35.472-32-39.192V208h-16v16h-16v-16H88z    M152,328c0,13.232-10.768,24-24,24H88v-48h40C141.232,304,152,314.768,152,328z M152,264c0,13.232-10.768,24-24,24H88v-48h40   C141.232,240,152,250.768,152,264z" data-original="#3F3A34" class="" data-old_color="#ffffff"></path>
	<rect x="104" y="96" style="fill:#FFFFFF" width="16" height="16" data-original="#3F3A34" class="" data-old_color="#ffffff"></rect>
	<path style="fill:#FFFFFF" d="M120,64c0-13.232,10.768-24,24-24h56V24h-56c-22.056,0-40,17.944-40,40v16h16V64z" data-original="#3F3A34" class="" data-old_color="#ffffff"></path>
	<rect x="376" y="384" style="fill:#FFFFFF" width="16" height="16" data-original="#3F3A34" class="" data-old_color="#ffffff"></rect>
	<path style="fill:#FFFFFF" d="M376,432c0,13.232-10.768,24-24,24h-56v16h56c22.056,0,40-17.944,40-40v-16h-16V432z" data-original="#3F3A34" class="" data-old_color="#ffffff"></path>
</g><g>
	<path style="fill:#FFFFFF" d="M224,64c-17.648,0-32-14.352-32-32s14.352-32,32-32s32,14.352,32,32S241.648,64,224,64z M224,16   c-8.824,0-16,7.176-16,16s7.176,16,16,16s16-7.176,16-16S232.824,16,224,16z" data-original="#E56565" class="active-path" data-old_color="#ffffff"></path>
	<path style="fill:#FFFFFF" d="M272,496c-17.648,0-32-14.352-32-32s14.352-32,32-32s32,14.352,32,32S289.648,496,272,496z M272,448   c-8.824,0-16,7.176-16,16s7.176,16,16,16s16-7.176,16-16S280.824,448,272,448z" data-original="#E56565" class="active-path" data-old_color="#ffffff"></path>
</g></g> </svg>