<?xml version="1.0"?>
<svg xmlns="http://www.w3.org/2000/svg" xmlns:xlink="http://www.w3.org/1999/xlink" version="1.1" id="Capa_1" x="0px" y="0px" viewBox="0 0 496 496" style="enable-background:new 0 0 496 496;" xml:space="preserve" width="512px" height="512px" class=""><g><g>
	<path style="fill:#2878B2" d="M192,216h96c8.84,0,16-7.16,16-16l0,0c0-8.84-7.16-16-16-16h-96V216z" data-original="#FFCB57" class="" data-old_color="#2878b2"/>
	<path style="fill:#2878B2" d="M192,312h96c8.84,0,16-7.16,16-16l0,0c0-8.84-7.16-16-16-16h-96V312z" data-original="#FFCB57" class="" data-old_color="#2878b2"/>
</g><g>
	<path style="fill:#FFFFFF" d="M184,224h104c13.232,0,24-10.768,24-24s-10.768-24-24-24H184V224z M200,192h88c4.408,0,8,3.584,8,8   s-3.592,8-8,8h-88V192z" data-original="#3F3A34" class="" data-old_color="#ffffff"/>
	<path style="fill:#FFFFFF" d="M312,296c0-13.232-10.768-24-24-24H184v48h104C301.232,320,312,309.232,312,296z M200,288h88   c4.408,0,8,3.584,8,8s-3.592,8-8,8h-88V288z" data-original="#3F3A34" class="" data-old_color="#ffffff"/>
	<polygon style="fill:#FFFFFF" points="272,444 272,336 192,336 192,456 208,456 208,352 256,352 256,452 293.336,480 392,480    392,464 298.664,464  " data-original="#3F3A34" class="" data-old_color="#ffffff"/>
	<polygon style="fill:#FFFFFF" points="40,88 40,104 133.336,104 160,124 160,144 144,144 144,272 160,272 160,160 176,160    176,116 138.664,88  " data-original="#3F3A34" class="" data-old_color="#ffffff"/>
	<polygon style="fill:#FFFFFF" points="160,288 80,288 80,304 144,304 144,352 160,352 160,396 133.336,416 40,416 40,432    138.664,432 176,404 176,336 160,336  " data-original="#3F3A34" class="" data-old_color="#ffffff"/>
	<polygon style="fill:#FFFFFF" points="160,52 160,84 192,108 192,160 272,160 272,92 240,68 240,40 224,40 224,76 256,100    256,144 208,144 208,100 176,76 176,44 138.664,16 104,16 104,32 133.336,32  " data-original="#3F3A34" class="" data-old_color="#ffffff"/>
	<path style="fill:#FFFFFF" d="M442.664,392h-112L304,372v-20.568c27.104-3.888,48-27.264,48-55.432   c0-20.344-10.904-38.192-27.176-48c14.104-8.496,24.168-23.032,26.608-40H456v-16H336v8c0,22.056-17.944,40-40,40v16   c22.056,0,40,17.944,40,40s-17.944,40-40,40h-8v44l37.336,28h112L464,428v28h16v-36L442.664,392z" data-original="#3F3A34" class="" data-old_color="#ffffff"/>
	<path style="fill:#FFFFFF" d="M325.648,173.344l2.384,2.656h58.64L424,148v-32.688L443.312,96H456V80h-19.312L408,108.688V140   l-26.664,20h-46.328c-8.512-8.32-19.392-13.704-31-15.416V40h-16v120h8C307.384,160,317.92,164.744,325.648,173.344z" data-original="#3F3A34" class="" data-old_color="#ffffff"/>
</g><g>
	<path style="fill:#FFFFFF" d="M296,48c-13.232,0-24-10.768-24-24s10.768-24,24-24s24,10.768,24,24S309.232,48,296,48z M296,16   c-4.408,0-8,3.584-8,8s3.592,8,8,8s8-3.584,8-8S300.408,16,296,16z" data-original="#E56565" class="active-path" data-old_color="#ffffff"/>
	<path style="fill:#FFFFFF" d="M232,48c-13.232,0-24-10.768-24-24s10.768-24,24-24s24,10.768,24,24S245.232,48,232,48z M232,16   c-4.408,0-8,3.584-8,8s3.592,8,8,8s8-3.584,8-8S236.408,16,232,16z" data-original="#E56565" class="active-path" data-old_color="#ffffff"/>
	<path style="fill:#FFFFFF" d="M88,48c-13.232,0-24-10.768-24-24S74.768,0,88,0s24,10.768,24,24S101.232,48,88,48z M88,16   c-4.408,0-8,3.584-8,8s3.592,8,8,8s8-3.584,8-8S92.408,16,88,16z" data-original="#E56565" class="active-path" data-old_color="#ffffff"/>
	<path style="fill:#FFFFFF" d="M24,120c-13.232,0-24-10.768-24-24s10.768-24,24-24s24,10.768,24,24S37.232,120,24,120z M24,88   c-4.408,0-8,3.584-8,8s3.592,8,8,8s8-3.584,8-8S28.408,88,24,88z" data-original="#E56565" class="active-path" data-old_color="#ffffff"/>
	<path style="fill:#FFFFFF" d="M200,496c-13.232,0-24-10.768-24-24s10.768-24,24-24s24,10.768,24,24S213.232,496,200,496z M200,464   c-4.408,0-8,3.584-8,8s3.592,8,8,8s8-3.584,8-8S204.408,464,200,464z" data-original="#E56565" class="active-path" data-old_color="#ffffff"/>
	<path style="fill:#FFFFFF" d="M408,496c-13.232,0-24-10.768-24-24s10.768-24,24-24s24,10.768,24,24S421.232,496,408,496z M408,464   c-4.408,0-8,3.584-8,8s3.592,8,8,8s8-3.584,8-8S412.408,464,408,464z" data-original="#E56565" class="active-path" data-old_color="#ffffff"/>
	<path style="fill:#FFFFFF" d="M472,496c-13.232,0-24-10.768-24-24s10.768-24,24-24s24,10.768,24,24S485.232,496,472,496z M472,464   c-4.408,0-8,3.584-8,8s3.592,8,8,8s8-3.584,8-8S476.408,464,472,464z" data-original="#E56565" class="active-path" data-old_color="#ffffff"/>
	<path style="fill:#FFFFFF" d="M472,224c-13.232,0-24-10.768-24-24s10.768-24,24-24s24,10.768,24,24S485.232,224,472,224z M472,192   c-4.408,0-8,3.584-8,8s3.592,8,8,8s8-3.584,8-8S476.408,192,472,192z" data-original="#E56565" class="active-path" data-old_color="#ffffff"/>
	<path style="fill:#FFFFFF" d="M472,112c-13.232,0-24-10.768-24-24s10.768-24,24-24s24,10.768,24,24S485.232,112,472,112z M472,80   c-4.408,0-8,3.584-8,8s3.592,8,8,8s8-3.584,8-8S476.408,80,472,80z" data-original="#E56565" class="active-path" data-old_color="#ffffff"/>
	<path style="fill:#FFFFFF" d="M24,448c-13.232,0-24-10.768-24-24s10.768-24,24-24s24,10.768,24,24S37.232,448,24,448z M24,416   c-4.408,0-8,3.584-8,8s3.592,8,8,8s8-3.584,8-8S28.408,416,24,416z" data-original="#E56565" class="active-path" data-old_color="#ffffff"/>
	<path style="fill:#FFFFFF" d="M64,320c-13.232,0-24-10.768-24-24s10.768-24,24-24s24,10.768,24,24S77.232,320,64,320z M64,288   c-4.408,0-8,3.584-8,8s3.592,8,8,8s8-3.584,8-8S68.408,288,64,288z" data-original="#E56565" class="active-path" data-old_color="#ffffff"/>
</g></g> </svg>
